<?xml version="1.0" encoding="UTF-8" standalone="no"?>
<!DOCTYPE svg PUBLIC "-//W3C//DTD SVG 1.1//EN" "http://www.w3.org/Graphics/SVG/1.1/DTD/svg11.dtd">
<svg width="100%" height="100%" viewBox="0 0 300 300" version="1.1" xmlns="http://www.w3.org/2000/svg" xmlns:xlink="http://www.w3.org/1999/xlink" xml:space="preserve" xmlns:serif="http://www.serif.com/" style="fill-rule:evenodd;clip-rule:evenodd;stroke-linejoin:round;stroke-miterlimit:2;">
    <g transform="matrix(1,0,0,1,-1050,-1650)">
        <g transform="matrix(1,0,0,1,750,1350)">
            <g>
                <g>
                    <g transform="matrix(1,0,0,1,0,-600)">
                        <path d="M450,900C532.787,900 600,967.213 600,1050C600,1132.79 532.787,1200 450,1200C367.213,1200 300,1132.79 300,1050C300,967.213 367.213,900 450,900ZM450,933.984C514.031,933.984 566.016,985.969 566.016,1050C566.016,1114.03 514.031,1166.02 450,1166.02C385.969,1166.02 333.984,1114.03 333.984,1050C333.984,985.969 385.969,933.984 450,933.984Z" style="fill:rgb(230,230,230);"/>
                    </g>
                    <g transform="matrix(0.822759,0,0,0.835369,94.1565,90.3737)">
                        <ellipse cx="432.5" cy="430.5" rx="132.5" ry="130.5" style="fill:rgb(230,230,230);"/>
                    </g>
                </g>
            </g>
        </g>
        <g transform="matrix(1,0,0,1,-150,150)">
            <path d="M1425,1636.02C1425,1616.63 1414.96,1616.96 1411.67,1610.67C1409.51,1606.53 1406.8,1602.64 1405.26,1598.24C1403.2,1592.36 1401.8,1577.53 1399.33,1575.37C1396.86,1573.22 1391.2,1580.92 1390.45,1585.31C1389.62,1590.12 1393.9,1598.07 1394.39,1604.2C1394.88,1610.16 1396.54,1617.02 1393.41,1622.1C1386,1634.11 1388.17,1655.82 1349.97,1676.28C1326.77,1688.71 1312.7,1685.39 1300.61,1688.71C1292.77,1690.86 1281.36,1693.18 1277.41,1696.16C1274.64,1698.26 1273.98,1704.76 1276.91,1706.6C1284.57,1711.41 1284.8,1724.66 1323.31,1725C1381.07,1725.49 1425,1680.26 1425,1636.02Z" style="fill:rgb(255,225,0);"/>
            <clipPath id="_clip1">
                <path d="M1425,1636.02C1425,1616.63 1414.96,1616.96 1411.67,1610.67C1409.51,1606.53 1406.8,1602.64 1405.26,1598.24C1403.2,1592.36 1401.8,1577.53 1399.33,1575.37C1396.86,1573.22 1391.2,1580.92 1390.45,1585.31C1389.62,1590.12 1393.9,1598.07 1394.39,1604.2C1394.88,1610.16 1396.54,1617.02 1393.41,1622.1C1386,1634.11 1388.17,1655.82 1349.97,1676.28C1326.77,1688.71 1312.7,1685.39 1300.61,1688.71C1292.77,1690.86 1281.36,1693.18 1277.41,1696.16C1274.64,1698.26 1273.98,1704.76 1276.91,1706.6C1284.57,1711.41 1284.8,1724.66 1323.31,1725C1381.07,1725.49 1425,1680.26 1425,1636.02Z"/>
            </clipPath>
            <g clip-path="url(#_clip1)">
                <g transform="matrix(1,0,0,0.8125,-28.125,295.313)">
                    <path d="M1425,1636.02C1425,1616.63 1414.96,1616.96 1411.67,1610.67C1409.51,1606.53 1406.8,1602.64 1405.26,1598.24C1403.2,1592.36 1401.8,1577.53 1399.33,1575.37C1396.86,1573.22 1391.2,1580.92 1390.45,1585.31C1389.62,1590.12 1393.9,1598.07 1394.39,1604.2C1394.88,1610.16 1396.54,1617.02 1393.41,1622.1C1386,1634.11 1388.17,1655.82 1349.97,1676.28C1326.77,1688.71 1312.7,1685.39 1300.61,1688.71C1292.77,1690.86 1281.36,1693.18 1277.41,1696.16C1274.64,1698.26 1273.98,1704.76 1276.91,1706.6C1284.57,1711.41 1284.8,1724.66 1323.31,1725C1381.07,1725.49 1425,1680.26 1425,1636.02Z" style="fill:rgb(255,240,0);"/>
                </g>
            </g>
        </g>
    </g>
</svg>
