<?xml version="1.0" encoding="UTF-8" standalone="no"?>
<!DOCTYPE svg PUBLIC "-//W3C//DTD SVG 1.1//EN" "http://www.w3.org/Graphics/SVG/1.1/DTD/svg11.dtd">
<svg width="100%" height="100%" viewBox="0 0 300 300" version="1.1" xmlns="http://www.w3.org/2000/svg" xmlns:xlink="http://www.w3.org/1999/xlink" xml:space="preserve" xmlns:serif="http://www.serif.com/" style="fill-rule:evenodd;clip-rule:evenodd;stroke-linecap:round;stroke-linejoin:round;stroke-miterlimit:1.5;">
    <g transform="matrix(1,0,0,1,-150,-1650)">
        <g transform="matrix(1,0,0,1,-150,1350)">
            <g>
                <g transform="matrix(1,0,0,1,0,-600)">
                    <path d="M450,900C532.787,900 600,967.213 600,1050C600,1132.79 532.787,1200 450,1200C367.213,1200 300,1132.79 300,1050C300,967.213 367.213,900 450,900ZM450,933.984C514.031,933.984 566.016,985.969 566.016,1050C566.016,1114.03 514.031,1166.02 450,1166.02C385.969,1166.02 333.984,1114.03 333.984,1050C333.984,985.969 385.969,933.984 450,933.984Z" style="fill:rgb(230,230,230);"/>
                </g>
                <g transform="matrix(0.822759,0,0,0.835369,94.1565,90.3737)">
                    <ellipse cx="432.5" cy="430.5" rx="132.5" ry="130.5" style="fill:rgb(230,230,230);"/>
                </g>
            </g>
        </g>
        <g transform="matrix(0.5,0,0,0.5,75,1575)">
            <path d="M450,300C525,300 600,318.75 600,356.25C600,393.75 562.5,393.75 562.5,393.75C562.5,393.75 600,394 600,431.25L600,570C600,577.956 596.839,585.587 591.213,591.213C585.587,596.839 577.956,600 570,600C512.52,600 387.48,600 330,600C313.431,600 300,586.569 300,570C300,521.502 300,431.25 300,431.25C300,394 337.5,393.75 337.5,393.75C337.5,393.75 300,393.75 300,356.25C300,318.75 375,300 450,300Z" style="fill:rgb(255,230,170);stroke:rgb(150,75,0);stroke-width:8.33px;"/>
        </g>
    </g>
</svg>
