<?xml version="1.0" encoding="UTF-8" standalone="no"?>
<!DOCTYPE svg PUBLIC "-//W3C//DTD SVG 1.1//EN" "http://www.w3.org/Graphics/SVG/1.1/DTD/svg11.dtd">
<svg width="100%" height="100%" viewBox="0 0 300 300" version="1.1" xmlns="http://www.w3.org/2000/svg" xmlns:xlink="http://www.w3.org/1999/xlink" xml:space="preserve" xmlns:serif="http://www.serif.com/" style="fill-rule:evenodd;clip-rule:evenodd;stroke-linejoin:round;stroke-miterlimit:2;">
    <g transform="matrix(1,0,0,1,-1800,0)">
        <rect id="Artboard7" x="1800" y="0" width="300" height="300" style="fill:none;"/>
        <g id="Artboard71" serif:id="Artboard7">
            <g transform="matrix(1,0,0,1,-1050,-1650)">
                <g transform="matrix(1,0,0,1,2550,1350)">
                    <g>
                        <g>
                            <g>
                                <g>
                                    <g>
                                        <g transform="matrix(1,0,0,1,0,-600)">
                                            <path d="M450,900C532.787,900 600,967.213 600,1050C600,1132.79 532.787,1200 450,1200C367.213,1200 300,1132.79 300,1050C300,967.213 367.213,900 450,900ZM450,933.984C514.031,933.984 566.016,985.969 566.016,1050C566.016,1114.03 514.031,1166.02 450,1166.02C385.969,1166.02 333.984,1114.03 333.984,1050C333.984,985.969 385.969,933.984 450,933.984Z" style="fill:rgb(230,230,230);"/>
                                        </g>
                                        <g transform="matrix(0.822759,0,0,0.835369,94.1565,90.3737)">
                                            <ellipse cx="432.5" cy="430.5" rx="132.5" ry="130.5" style="fill:rgb(230,230,230);"/>
                                        </g>
                                    </g>
                                </g>
                            </g>
                        </g>
                    </g>
                </g>
                <g transform="matrix(1,0,0,0.75,18.75,450)">
                    <path d="M2929.05,1727.03C2928.13,1726.57 2927.1,1726.74 2926.29,1727.48C2925.48,1728.23 2925,1729.46 2925,1730.77C2925,1754.62 2925,1845.38 2925,1869.23C2925,1870.54 2925.48,1871.77 2926.29,1872.52C2927.1,1873.26 2928.13,1873.43 2929.05,1872.97C2949.41,1862.79 3040.61,1817.19 3067.51,1803.75C3068.68,1803.16 3069.46,1801.67 3069.46,1800C3069.46,1798.33 3068.68,1796.84 3067.51,1796.26C3040.61,1782.81 2949.41,1737.21 2929.05,1727.03Z" style="fill:rgb(255,200,0);"/>
                    <clipPath id="_clip1">
                        <path d="M2929.05,1727.03C2928.13,1726.57 2927.1,1726.74 2926.29,1727.48C2925.48,1728.23 2925,1729.46 2925,1730.77C2925,1754.62 2925,1845.38 2925,1869.23C2925,1870.54 2925.48,1871.77 2926.29,1872.52C2927.1,1873.26 2928.13,1873.43 2929.05,1872.97C2949.41,1862.79 3040.61,1817.19 3067.51,1803.75C3068.68,1803.16 3069.46,1801.67 3069.46,1800C3069.46,1798.33 3068.68,1796.84 3067.51,1796.26C3040.61,1782.81 2949.41,1737.21 2929.05,1727.03Z"/>
                    </clipPath>
                    <g clip-path="url(#_clip1)">
                        <g transform="matrix(1,0,0,1.33333,18.75,-512.5)">
                            <circle cx="2943.75" cy="1743.75" r="18.75" style="fill:rgb(225,175,0);"/>
                        </g>
                        <g transform="matrix(0.75,0,0,1,801.562,25)">
                            <circle cx="2943.75" cy="1743.75" r="18.75" style="fill:rgb(225,175,0);"/>
                        </g>
                        <g transform="matrix(0.75,0,0,1,740.625,125)">
                            <circle cx="2943.75" cy="1743.75" r="18.75" style="fill:rgb(225,175,0);"/>
                        </g>
                        <g transform="matrix(0.75,0,0,1,721.875,25)">
                            <circle cx="2943.75" cy="1743.75" r="18.75" style="fill:rgb(225,175,0);"/>
                        </g>
                        <g transform="matrix(0.5,0,0,0.666667,1490.62,587.5)">
                            <circle cx="2943.75" cy="1743.75" r="18.75" style="fill:rgb(225,175,0);"/>
                        </g>
                        <g transform="matrix(0.5,0,0,0.666667,1528.12,650)">
                            <circle cx="2943.75" cy="1743.75" r="18.75" style="fill:rgb(225,175,0);"/>
                        </g>
                        <g transform="matrix(0.75,0,0,1,834.375,75)">
                            <circle cx="2943.75" cy="1743.75" r="18.75" style="fill:rgb(225,175,0);"/>
                        </g>
                    </g>
                </g>
            </g>
        </g>
    </g>
</svg>
