<?xml version="1.0" encoding="UTF-8" standalone="no"?>
<!DOCTYPE svg PUBLIC "-//W3C//DTD SVG 1.1//EN" "http://www.w3.org/Graphics/SVG/1.1/DTD/svg11.dtd">
<svg width="100%" height="100%" viewBox="0 0 300 300" version="1.1" xmlns="http://www.w3.org/2000/svg" xmlns:xlink="http://www.w3.org/1999/xlink" xml:space="preserve" xmlns:serif="http://www.serif.com/" style="fill-rule:evenodd;clip-rule:evenodd;stroke-linejoin:round;stroke-miterlimit:2;">
    <g id="Artboard2" transform="matrix(1,0,0,1,300,0)">
        <rect x="-300" y="0" width="300" height="300" style="fill:none;"/>
        <clipPath id="_clip1">
            <rect x="-300" y="0" width="300" height="300"/>
        </clipPath>
        <g clip-path="url(#_clip1)">
            <g transform="matrix(1,0,0,1,-2250,-1650)">
                <g transform="matrix(1,0,0,1,1650,1350)">
                    <g>
                        <g>
                            <g>
                                <g>
                                    <g transform="matrix(1,0,0,1,0,-600)">
                                        <path d="M450,900C532.787,900 600,967.213 600,1050C600,1132.79 532.787,1200 450,1200C367.213,1200 300,1132.79 300,1050C300,967.213 367.213,900 450,900ZM450,933.984C514.031,933.984 566.016,985.969 566.016,1050C566.016,1114.03 514.031,1166.02 450,1166.02C385.969,1166.02 333.984,1114.03 333.984,1050C333.984,985.969 385.969,933.984 450,933.984Z" style="fill:rgb(230,230,230);"/>
                                    </g>
                                    <g transform="matrix(0.822759,0,0,0.835369,94.1565,90.3737)">
                                        <ellipse cx="432.5" cy="430.5" rx="132.5" ry="130.5" style="fill:rgb(230,230,230);"/>
                                    </g>
                                </g>
                            </g>
                        </g>
                    </g>
                </g>
                <g transform="matrix(0.625,0,0,0.628908,693.75,667.673)">
                    <clipPath id="_clip2">
                        <rect x="2100" y="1725.93" width="75" height="149.068"/>
                    </clipPath>
                    <g clip-path="url(#_clip2)">
                        <path d="M2161.04,1772.21C2141.16,1749.45 2108.31,1725.95 2101.9,1725.95C2092.59,1725.95 2120.53,1775.63 2120.53,1800.48C2120.53,1825.32 2092.59,1875 2101.9,1875C2108.34,1875 2141.46,1851.28 2161.32,1828.42C2191.69,1851.28 2247.19,1875 2288.21,1875C2345.6,1875 2400,1825.32 2400,1800.48C2400,1775.63 2347.6,1727.05 2288.21,1725.95C2245.88,1725.17 2190.99,1749.13 2161.04,1772.21Z" style="fill:rgb(0,75,150);"/>
                    </g>
                    <g transform="matrix(1.98733,0,0,1.98733,1505.7,-1329.56)">
                        <path d="M450,1575C450,1562.5 423.634,1538.05 393.75,1537.5C362.884,1536.93 318.75,1562.5 318.75,1575C318.75,1587.5 363.875,1612.5 393.75,1612.5C422.625,1612.5 450,1587.5 450,1575Z" style="fill:rgb(0,128,255);"/>
                    </g>
                    <g transform="matrix(1,0,0,1,9.375,0)">
                        <circle cx="2334.38" cy="1790.62" r="9.375" style="fill:rgb(0,75,150);"/>
                    </g>
                    <path d="M2325.82,1836.67C2323.42,1833.46 2320.4,1828.8 2317.64,1821.12C2316.69,1818.45 2315.89,1815.42 2314.95,1811.96C2314.43,1810.03 2313.84,1807.98 2313.23,1805.78C2312.41,1802.85 2311.47,1799.74 2310.61,1796.24C2309.51,1791.72 2308.31,1786.91 2307.42,1781.26C2307.43,1780.62 2306.9,1780.09 2306.26,1780.09C2305.61,1780.08 2305.08,1780.6 2305.08,1781.24C2304.36,1785.28 2303.83,1788.9 2303.53,1792.44C2303.3,1795.14 2303.24,1797.63 2303.26,1800.06C2303.3,1802.8 2303.47,1805.34 2303.8,1807.74C2304.05,1809.53 2304.41,1811.23 2304.85,1812.82C2305.21,1814.13 2305.63,1815.37 2306.1,1816.54C2307.37,1819.7 2308.78,1822.41 2310.31,1824.75C2311.93,1827.22 2313.56,1829.24 2315.24,1830.97C2318.65,1834.51 2321.74,1836.64 2324.18,1838.33C2324.64,1838.78 2325.38,1838.77 2325.84,1838.31C2326.29,1837.86 2326.28,1837.12 2325.82,1836.67Z" style="fill:rgb(0,75,150);"/>
                </g>
            </g>
        </g>
    </g>
</svg>
