<?xml version="1.0" encoding="UTF-8" standalone="no"?>
<!DOCTYPE svg PUBLIC "-//W3C//DTD SVG 1.1//EN" "http://www.w3.org/Graphics/SVG/1.1/DTD/svg11.dtd">
<svg width="100%" height="100%" viewBox="0 0 300 300" version="1.1" xmlns="http://www.w3.org/2000/svg" xmlns:xlink="http://www.w3.org/1999/xlink" xml:space="preserve" xmlns:serif="http://www.serif.com/" style="fill-rule:evenodd;clip-rule:evenodd;stroke-linejoin:round;stroke-miterlimit:2;">
    <g transform="matrix(1,0,0,1,-600,-1650)">
        <g transform="matrix(1,0,0,1,300,1350)">
            <g>
                <g transform="matrix(1,0,0,1,0,-600)">
                    <path d="M450,900C532.787,900 600,967.213 600,1050C600,1132.79 532.787,1200 450,1200C367.213,1200 300,1132.79 300,1050C300,967.213 367.213,900 450,900ZM450,933.984C514.031,933.984 566.016,985.969 566.016,1050C566.016,1114.03 514.031,1166.02 450,1166.02C385.969,1166.02 333.984,1114.03 333.984,1050C333.984,985.969 385.969,933.984 450,933.984Z" style="fill:rgb(230,230,230);"/>
                </g>
                <g transform="matrix(0.822759,0,0,0.835369,94.1565,90.3737)">
                    <ellipse cx="432.5" cy="430.5" rx="132.5" ry="130.5" style="fill:rgb(230,230,230);"/>
                </g>
            </g>
        </g>
        <g transform="matrix(1,0,0,1,-750,379.688)">
            <g transform="matrix(1,0,0,1.125,0,-178.125)">
                <path d="M1575,1416.66C1575,1379.85 1541.42,1350 1500,1350L1500,1350C1458.58,1350 1425,1379.85 1425,1416.66L1425,1419.21C1425,1420.74 1425.69,1422.22 1426.91,1423.3C1428.13,1424.39 1429.79,1425 1431.52,1425C1456.2,1425 1543.8,1425 1568.48,1425C1570.21,1425 1571.87,1424.39 1573.09,1423.3C1574.31,1422.22 1575,1420.74 1575,1419.21C1575,1418.42 1575,1417.58 1575,1416.66Z" style="fill:rgb(255,180,75);"/>
            </g>
            <path d="M1443.75,1425C1443.75,1425 1448.79,1465.35 1451.48,1486.86C1452.42,1494.37 1458.8,1500 1466.37,1500C1484.21,1500 1515.79,1500 1533.63,1500C1541.2,1500 1547.58,1494.37 1548.52,1486.86C1551.21,1465.35 1556.25,1425 1556.25,1425L1443.75,1425Z" style="fill:rgb(255,215,150);"/>
        </g>
    </g>
</svg>
