<?xml version="1.0" encoding="UTF-8" standalone="no"?>
<!DOCTYPE svg PUBLIC "-//W3C//DTD SVG 1.1//EN" "http://www.w3.org/Graphics/SVG/1.1/DTD/svg11.dtd">
<svg width="100%" height="100%" viewBox="0 0 300 300" version="1.1" xmlns="http://www.w3.org/2000/svg" xmlns:xlink="http://www.w3.org/1999/xlink" xml:space="preserve" xmlns:serif="http://www.serif.com/" style="fill-rule:evenodd;clip-rule:evenodd;stroke-linejoin:round;stroke-miterlimit:2;">
    <g transform="matrix(1,0,0,1,-2400,0)">
        <rect id="Artboard9" x="2400" y="0" width="300" height="300" style="fill:none;"/>
        <g id="Artboard91" serif:id="Artboard9">
            <g transform="matrix(1,0,0,1,2100,-300)">
                <g transform="matrix(1,0,0,1,0,-600)">
                    <path d="M450,900C532.787,900 600,967.213 600,1050C600,1132.79 532.787,1200 450,1200C367.213,1200 300,1132.79 300,1050C300,967.213 367.213,900 450,900ZM450,933.984C514.031,933.984 566.016,985.969 566.016,1050C566.016,1114.03 514.031,1166.02 450,1166.02C385.969,1166.02 333.984,1114.03 333.984,1050C333.984,985.969 385.969,933.984 450,933.984Z" style="fill:rgb(230,230,230);"/>
                </g>
                <g transform="matrix(0.822759,0,0,0.835369,94.1565,90.3737)">
                    <ellipse cx="432.5" cy="430.5" rx="132.5" ry="130.5" style="fill:rgb(230,230,230);"/>
                </g>
                <g transform="matrix(2,0,0,2,-7729.68,-2175)">
                    <g transform="matrix(2,0,0,1,-4050,0)">
                        <path d="M4051.68,1350C4051.25,1350 4050.84,1349.64 4050.56,1349C4050.27,1348.37 4050.14,1347.52 4050.18,1346.67C4050.81,1335.37 4052.84,1298.67 4053.37,1289.05C4053.45,1287.72 4054.01,1286.72 4054.67,1286.72C4054.67,1286.72 4054.67,1286.72 4054.67,1286.72L4054.69,1284.38L4064.06,1284.38L4064.05,1286.72L4064.05,1286.72C4064.71,1286.72 4065.28,1287.72 4065.35,1289.05C4065.89,1298.67 4067.93,1335.37 4068.56,1346.67C4068.61,1347.52 4068.48,1348.36 4068.19,1349C4067.91,1349.64 4067.5,1350 4067.07,1350C4063.51,1350 4055.23,1350 4051.68,1350Z" style="fill:rgb(200,240,255);"/>
                        <clipPath id="_clip1">
                            <path d="M4051.68,1350C4051.25,1350 4050.84,1349.64 4050.56,1349C4050.27,1348.37 4050.14,1347.52 4050.18,1346.67C4050.81,1335.37 4052.84,1298.67 4053.37,1289.05C4053.45,1287.72 4054.01,1286.72 4054.67,1286.72C4054.67,1286.72 4054.67,1286.72 4054.67,1286.72L4054.69,1284.38L4064.06,1284.38L4064.05,1286.72L4064.05,1286.72C4064.71,1286.72 4065.28,1287.72 4065.35,1289.05C4065.89,1298.67 4067.93,1335.37 4068.56,1346.67C4068.61,1347.52 4068.48,1348.36 4068.19,1349C4067.91,1349.64 4067.5,1350 4067.07,1350C4063.51,1350 4055.23,1350 4051.68,1350Z"/>
                        </clipPath>
                        <g clip-path="url(#_clip1)">
                            <g transform="matrix(0.25,0,0,0.5,3037.5,675)">
                                <rect x="3900" y="1275" width="300" height="75" style="fill:rgb(64,64,64);"/>
                            </g>
                        </g>
                        <path d="M4051.68,1350C4051.25,1350 4050.84,1349.64 4050.56,1349C4050.27,1348.37 4050.14,1347.52 4050.18,1346.67C4050.81,1335.37 4052.84,1298.67 4053.37,1289.05C4053.45,1287.72 4054.01,1286.72 4054.67,1286.72C4054.67,1286.72 4054.67,1286.72 4054.67,1286.72L4054.69,1284.38L4064.06,1284.38L4064.05,1286.72L4064.05,1286.72C4064.71,1286.72 4065.28,1287.72 4065.35,1289.05C4065.89,1298.67 4067.93,1335.37 4068.56,1346.67C4068.61,1347.52 4068.48,1348.36 4068.19,1349C4067.91,1349.64 4067.5,1350 4067.07,1350C4063.51,1350 4055.23,1350 4051.68,1350ZM4051.68,1347.92C4051.55,1347.92 4051.42,1347.81 4051.33,1347.61C4051.25,1347.42 4051.2,1347.16 4051.22,1346.9C4051.84,1335.6 4053.87,1298.9 4054.41,1289.28C4054.42,1289.01 4054.54,1288.8 4054.67,1288.8C4054.67,1288.8 4054.67,1288.8 4054.67,1288.8C4055.24,1288.8 4055.71,1287.89 4055.71,1286.75L4055.72,1286.46C4055.72,1286.46 4063.01,1286.46 4063.01,1286.46C4063.01,1286.46 4063.01,1286.69 4063.01,1286.69C4063,1287.25 4063.11,1287.79 4063.31,1288.18C4063.5,1288.58 4063.77,1288.8 4064.05,1288.8L4064.05,1288.8C4064.18,1288.8 4064.3,1289.01 4064.31,1289.28C4064.31,1289.28 4067.53,1346.9 4067.53,1346.9C4067.54,1347.16 4067.5,1347.42 4067.41,1347.61C4067.33,1347.81 4067.2,1347.92 4067.07,1347.92L4051.68,1347.92Z" style="fill:rgb(182,251,255);"/>
                    </g>
                    <path d="M4082.81,1282.88C4082.81,1283.28 4082.66,1283.66 4082.38,1283.94C4082.1,1284.22 4081.72,1284.38 4081.32,1284.38C4076.46,1284.38 4061.07,1284.38 4056.19,1284.38C4055.36,1284.38 4054.69,1283.7 4054.69,1282.87C4054.69,1281.91 4054.69,1280.69 4054.69,1279.88C4054.69,1279.3 4054.97,1278.76 4055.43,1278.42C4057.06,1277.33 4061.38,1275 4069,1275C4076.17,1275 4080.68,1277.54 4082.22,1278.57C4082.59,1278.85 4082.8,1279.29 4082.8,1279.75C4082.81,1280.56 4082.81,1281.87 4082.81,1282.88Z" style="fill:rgb(191,191,191);"/>
                </g>
                <g transform="matrix(2,0,0,2,-7645.31,-2175)">
                    <g transform="matrix(2,0,0,1,-4050,0)">
                        <path d="M4051.68,1350C4051.25,1350 4050.84,1349.64 4050.56,1349C4050.27,1348.37 4050.14,1347.52 4050.18,1346.67C4050.81,1335.37 4052.84,1298.67 4053.37,1289.05C4053.45,1287.72 4054.01,1286.72 4054.67,1286.72C4054.67,1286.72 4054.67,1286.72 4054.67,1286.72L4054.69,1284.38L4064.06,1284.38L4064.05,1286.72L4064.05,1286.72C4064.71,1286.72 4065.28,1287.72 4065.35,1289.05C4065.89,1298.67 4067.93,1335.37 4068.56,1346.67C4068.61,1347.52 4068.48,1348.36 4068.19,1349C4067.91,1349.64 4067.5,1350 4067.07,1350C4063.51,1350 4055.23,1350 4051.68,1350Z" style="fill:rgb(200,240,255);"/>
                        <clipPath id="_clip2">
                            <path d="M4051.68,1350C4051.25,1350 4050.84,1349.64 4050.56,1349C4050.27,1348.37 4050.14,1347.52 4050.18,1346.67C4050.81,1335.37 4052.84,1298.67 4053.37,1289.05C4053.45,1287.72 4054.01,1286.72 4054.67,1286.72C4054.67,1286.72 4054.67,1286.72 4054.67,1286.72L4054.69,1284.38L4064.06,1284.38L4064.05,1286.72L4064.05,1286.72C4064.71,1286.72 4065.28,1287.72 4065.35,1289.05C4065.89,1298.67 4067.93,1335.37 4068.56,1346.67C4068.61,1347.52 4068.48,1348.36 4068.19,1349C4067.91,1349.64 4067.5,1350 4067.07,1350C4063.51,1350 4055.23,1350 4051.68,1350Z"/>
                        </clipPath>
                        <g clip-path="url(#_clip2)">
                            <g transform="matrix(0.25,0,0,0.5,3037.5,675)">
                                <rect x="3900" y="1275" width="300" height="75" style="fill:white;"/>
                            </g>
                        </g>
                        <path d="M4051.68,1350C4051.25,1350 4050.84,1349.64 4050.56,1349C4050.27,1348.37 4050.14,1347.52 4050.18,1346.67C4050.81,1335.37 4052.84,1298.67 4053.37,1289.05C4053.45,1287.72 4054.01,1286.72 4054.67,1286.72C4054.67,1286.72 4054.67,1286.72 4054.67,1286.72L4054.69,1284.38L4064.06,1284.38L4064.05,1286.72L4064.05,1286.72C4064.71,1286.72 4065.28,1287.72 4065.35,1289.05C4065.89,1298.67 4067.93,1335.37 4068.56,1346.67C4068.61,1347.52 4068.48,1348.36 4068.19,1349C4067.91,1349.64 4067.5,1350 4067.07,1350C4063.51,1350 4055.23,1350 4051.68,1350ZM4051.68,1347.92C4051.55,1347.92 4051.42,1347.81 4051.33,1347.61C4051.25,1347.42 4051.2,1347.16 4051.22,1346.9C4051.84,1335.6 4053.87,1298.9 4054.41,1289.28C4054.42,1289.01 4054.54,1288.8 4054.67,1288.8C4054.67,1288.8 4054.67,1288.8 4054.67,1288.8C4055.24,1288.8 4055.71,1287.89 4055.71,1286.75L4055.72,1286.46C4055.72,1286.46 4063.01,1286.46 4063.01,1286.46C4063.01,1286.46 4063.01,1286.69 4063.01,1286.69C4063,1287.25 4063.11,1287.79 4063.31,1288.18C4063.5,1288.58 4063.77,1288.8 4064.05,1288.8L4064.05,1288.8C4064.18,1288.8 4064.3,1289.01 4064.31,1289.28C4064.31,1289.28 4067.53,1346.9 4067.53,1346.9C4067.54,1347.16 4067.5,1347.42 4067.41,1347.61C4067.33,1347.81 4067.2,1347.92 4067.07,1347.92L4051.68,1347.92Z" style="fill:rgb(182,251,255);"/>
                    </g>
                    <path d="M4082.81,1282.88C4082.81,1283.28 4082.66,1283.66 4082.38,1283.94C4082.1,1284.22 4081.72,1284.38 4081.32,1284.38C4076.46,1284.38 4061.07,1284.38 4056.19,1284.38C4055.36,1284.38 4054.69,1283.7 4054.69,1282.87C4054.69,1281.91 4054.69,1280.69 4054.69,1279.88C4054.69,1279.3 4054.97,1278.76 4055.43,1278.42C4057.06,1277.33 4061.38,1275 4069,1275C4076.17,1275 4080.68,1277.54 4082.22,1278.57C4082.59,1278.85 4082.8,1279.29 4082.8,1279.75C4082.81,1280.56 4082.81,1281.87 4082.81,1282.88Z" style="fill:rgb(191,191,191);"/>
                </g>
            </g>
        </g>
    </g>
</svg>
