<?xml version="1.0" encoding="UTF-8" standalone="no"?>
<!DOCTYPE svg PUBLIC "-//W3C//DTD SVG 1.1//EN" "http://www.w3.org/Graphics/SVG/1.1/DTD/svg11.dtd">
<svg width="100%" height="100%" viewBox="0 0 600 600" version="1.1" xmlns="http://www.w3.org/2000/svg" xmlns:xlink="http://www.w3.org/1999/xlink" xml:space="preserve" xmlns:serif="http://www.serif.com/" style="fill-rule:evenodd;clip-rule:evenodd;stroke-linejoin:round;stroke-miterlimit:2;">
    <g transform="matrix(1,0,0,1,-2250,-150)">
        <path d="M2550,300C2625,300 2700,318.75 2700,356.25C2700,393.75 2662.5,393.75 2662.5,393.75C2662.5,393.75 2700,394 2700,431.25L2700,585C2700,588.978 2698.42,592.794 2695.61,595.607C2692.79,598.42 2688.98,600 2685,600C2633.79,600 2466.21,600 2415,600C2411.02,600 2407.21,598.42 2404.39,595.607C2401.58,592.794 2400,588.978 2400,585C2400,543.681 2400,431.25 2400,431.25C2400,394 2437.5,393.75 2437.5,393.75C2437.5,393.75 2400,393.75 2400,356.25C2400,318.75 2475,300 2550,300ZM2488.88,467.92C2488.5,461.301 2485.82,455.36 2480.83,450.098C2479.47,447.168 2477.27,445.947 2474.24,446.436C2456.11,451.318 2448.03,464.827 2449.98,486.963C2451.99,492.551 2456.17,495.888 2462.52,496.973C2472.66,500.065 2475.7,504.433 2471.63,510.075L2470.65,512.191C2468.65,513.656 2465.8,512.788 2462.11,509.587L2459.59,506.982C2456.87,505.626 2454.68,505.273 2452.99,505.924C2450.83,507.986 2449.01,510.238 2447.54,512.679C2444.56,514.469 2444.72,516.721 2448.03,519.434C2458.34,529.959 2470.74,530.474 2485.22,520.98C2497.05,511.974 2497.75,502.913 2487.34,493.799C2482.13,490.11 2476.89,487.478 2471.63,485.905C2466.97,485.525 2465.31,481.836 2466.67,474.837C2466.12,472.016 2466.61,469.385 2468.13,466.943C2471.12,463.58 2473.47,464.122 2475.21,468.571C2476.68,470.47 2477.68,472.559 2478.22,474.837C2478.22,479.395 2479.77,480.778 2482.86,478.988L2486.77,478.499C2489.37,478.662 2490.59,477.794 2490.43,475.895C2490.21,473.291 2489.7,470.633 2488.88,467.92ZM2594.35,471.094C2584.32,486.285 2583.18,499.929 2590.93,512.028C2593.97,515.337 2597.58,516.992 2601.76,516.992C2604.25,516.992 2606.37,516.436 2608.11,515.324C2609.84,514.212 2611.55,512.815 2613.23,511.133C2615.78,509.017 2615.76,507.647 2613.15,507.023C2610.55,506.399 2608.59,507.118 2607.29,509.18C2603.33,512.435 2600.63,510.834 2599.19,504.378C2597.76,497.922 2598.77,489.486 2602.25,479.069C2605.28,474.946 2606.61,475.054 2606.23,479.395C2606.23,480.968 2607.73,481.822 2610.71,481.958C2613.69,482.094 2614.83,480.914 2614.13,478.418C2614.83,473.644 2612.55,470.47 2607.29,468.896C2603.93,467.974 2601.03,467.947 2598.58,468.815L2594.35,471.094ZM2567.25,508.203L2566.2,505.111C2561.69,504.622 2557.24,504.785 2552.85,505.599L2550.33,513.249C2549.46,516.395 2547.31,517.141 2543.9,515.487C2540.48,513.832 2539.47,511.947 2540.89,509.831L2555.21,475.081C2553.96,473.4 2554.15,472.206 2555.78,471.501C2557.13,469.765 2559.6,468.734 2563.18,468.408C2564.81,468.028 2565.79,468.652 2566.11,470.28C2569.31,483.789 2574.68,497.244 2582.23,510.645C2582.77,512.218 2582.36,513.249 2581.01,513.737C2579.32,515.148 2576.39,515.961 2572.22,516.178C2569.99,516.504 2568.96,515.934 2569.12,514.469L2567.25,508.203ZM2619.17,473.047C2620.15,486.339 2620.12,499.55 2619.09,512.679C2618.93,514.524 2619.61,515.527 2621.13,515.69C2623.46,516.016 2625.93,516.124 2628.53,516.016C2629.62,515.256 2630.05,514.144 2629.83,512.679L2629.83,502.751L2629.1,497.38C2634.53,501.666 2639.25,506.901 2643.26,513.086C2644.24,515.473 2646.76,515.337 2650.83,512.679C2654.9,510.021 2654.55,507.715 2649.77,505.762C2645.43,501.259 2641.39,497 2637.65,492.985C2640.79,487.668 2644.1,482.433 2647.58,477.279C2651.37,474.891 2651.28,472.613 2647.29,470.443C2643.3,468.273 2641.2,468.598 2640.98,471.419C2637.78,477.55 2633.77,483.084 2628.94,488.021C2629.05,485.362 2629.54,479.964 2630.4,471.826C2630.4,469.873 2629.45,468.679 2627.55,468.245C2625.76,467.866 2624.03,467.866 2622.35,468.245C2619.36,468.788 2618.3,470.388 2619.17,473.047ZM2533.32,467.432C2535.38,466.401 2536.65,467.323 2537.14,470.199C2537.58,471.772 2537.6,473.4 2537.22,475.081C2536.95,476.926 2536.03,477.848 2534.46,477.848C2530.6,477.469 2526.7,477.252 2522.74,477.197C2522.2,483.653 2521.92,490.11 2521.92,496.566L2522.58,502.913L2522.58,512.435C2522.85,513.9 2522.44,515.012 2521.35,515.771C2518.8,515.934 2516.36,515.799 2514.03,515.365C2512.57,515.256 2511.91,514.28 2512.08,512.435C2513,500.933 2513.14,489.323 2512.48,477.604L2510.04,477.93L2502.15,478.174C2501.06,478.499 2500.17,478.174 2499.46,477.197C2499.3,474.702 2499.38,472.369 2499.71,470.199C2499.76,468.788 2500.49,468.11 2501.9,468.164C2512.32,468.869 2522.79,468.625 2533.32,467.432ZM2555.86,496.322L2554.72,499.821C2557.81,499.604 2560.93,499.414 2564.08,499.251C2562.67,495.237 2561.31,491.547 2560.01,488.184C2559.2,488.726 2557.81,491.439 2555.86,496.322ZM2465.28,367.904C2466.37,379.622 2468.65,385.807 2472.12,386.458L2475.37,386.133C2475.81,403.711 2475.27,421.506 2473.75,439.518C2480.26,443.859 2485.9,443.967 2490.67,439.844C2490.67,430.946 2491,421.832 2491.65,412.5C2497.08,409.896 2502.83,408.594 2508.9,408.594C2512.16,408.594 2513.79,406.641 2513.79,402.734L2512.81,399.479C2512.59,397.092 2511.18,395.898 2508.58,395.898L2493.28,395.573L2493.6,387.76C2493.82,383.42 2495.12,381.25 2497.51,381.25C2507.28,379.514 2517.8,378.32 2529.09,377.669C2533.86,378.32 2532.78,373.655 2525.83,363.672C2505,364.106 2484.81,365.516 2465.28,367.904ZM2575.15,388.411C2575.58,400.13 2575.58,412.283 2575.15,424.87C2578.18,426.823 2580.57,429.21 2582.31,432.031C2587.3,430.295 2592.83,429.319 2598.91,429.102C2601.3,428.885 2602.27,428.016 2601.84,426.497L2598.91,421.94C2598.26,419.987 2597.17,418.902 2595.65,418.685C2593.27,419.77 2590.88,420.204 2588.49,419.987C2588.06,409.353 2588.71,398.72 2590.45,388.086C2590.88,385.699 2590.45,384.18 2589.14,383.529C2585.02,381.359 2581.01,381.684 2577.1,384.505C2575.58,385.59 2574.93,386.892 2575.15,388.411ZM2608.02,388.411C2608.46,400.13 2608.46,412.283 2608.02,424.87C2611.06,426.823 2613.45,429.21 2615.19,432.031C2620.18,430.295 2625.71,429.319 2631.79,429.102C2634.17,428.885 2635.15,428.016 2634.72,426.497L2631.79,421.94C2631.14,419.987 2630.05,418.902 2628.53,418.685C2626.14,419.77 2623.76,420.204 2621.37,419.987C2620.94,409.353 2621.59,398.72 2623.32,388.086C2623.76,385.699 2623.32,384.18 2622.02,383.529C2617.9,381.359 2613.88,381.684 2609.98,384.505C2608.46,385.59 2607.81,386.892 2608.02,388.411ZM2535.43,389.388C2536.52,398.937 2536.74,408.811 2536.08,419.01C2537.82,425.521 2541.51,429.753 2547.15,431.706C2549.76,432.14 2552.9,432.14 2556.59,431.706C2563.54,428.451 2567.01,423.025 2567.01,415.43C2567.22,406.532 2567.77,397.309 2568.64,387.76C2568.64,385.59 2567.55,384.505 2565.38,384.505C2563.64,383.637 2562.02,383.746 2560.5,384.831C2557.46,385.482 2556.16,387.109 2556.59,389.714C2557.24,399.262 2557.24,408.702 2556.59,418.034C2553.77,422.374 2551.06,422.483 2548.45,418.359C2547.8,408.377 2547.69,398.503 2548.13,388.737C2548.78,384.831 2547.69,383.095 2544.87,383.529C2542.7,382.661 2540.97,382.769 2539.66,383.854C2536.63,384.071 2535.22,385.916 2535.43,389.388Z" style="fill:rgb(204,204,204);"/>
    </g>
</svg>
